<?xml version="1.0" encoding="utf-8"?>
<!-- Generator: Adobe Illustrator 18.1.1, SVG Export Plug-In . SVG Version: 6.00 Build 0)  -->
<svg version="1.1" id="Layer_1" xmlns="http://www.w3.org/2000/svg" xmlns:xlink="http://www.w3.org/1999/xlink" x="0px" y="0px"
	 viewBox="0 0 960 560" enable-background="new 0 0 960 560" xml:space="preserve">
<g>
	<path fill="#FFFFFF" d="M535.2,217c1.3,4.8,5.6,8.1,10.6,8.1c5.5,0,10.9,0,16.4,0c5.6,0,11.1,0,16.7,0c5.9,0,10.8-4.8,10.8-10.8
		c0-11.1,0-22.1,0-33.2c0-6-4.9-10.8-10.9-10.8c-11,0-22.1,0-33.1,0c-6,0-10.8,4.9-10.9,10.9c0,11,0,22.1,0,33.1
		C534.9,215.2,535,216.1,535.2,217z"/>
	<path fill="#FFFFFF" d="M589.7,259c0-0.3-0.1-0.6-0.1-0.8c-2-0.2-23.8-0.1-24.7,0.1c4.6,18,3.7,35.7-3,53
		c-6.6,17.3-17.7,31.2-33.1,41.6c-28.4,19.1-65.5,19.9-94.7,2c-14.6-9-25.8-21.2-33.2-36.7c-9.2-19.2-11.1-39.2-5.9-59.9
		c-1.3-0.2-23.9-0.2-24.8,0.1c0,0.4,0,0.9,0,1.3c0,39.4,0,78.8,0,118.2c0,0.6,0,1.3,0.1,1.9c0.4,4.4,3.3,8.1,7.5,9.5
		c1.4,0.5,2.9,0.6,4.4,0.6c65.2,0,130.3,0,195.5,0c0.4,0,0.7,0,1.1,0c4.8-0.2,8.7-3,10.2-7.4c0.5-1.4,0.6-2.8,0.6-4.3
		c0-39.5,0-78.9,0-118.4C589.7,259.4,589.7,259.2,589.7,259z"/>
	<path fill="#FFFFFF" d="M480,334.9c30.3,0,54.8-24.5,54.9-54.7c0-30.4-24.5-55-54.8-55c-30.8,0-54.9,25.1-54.8,54.8
		C425.2,310.4,449.6,334.8,480,334.9z"/>
	<path fill="#FFFFFF" d="M480,7.1C329.3,7.1,207.1,129.3,207.1,280c0,150.7,122.2,272.9,272.9,272.9S752.9,430.7,752.9,280
		C752.9,129.3,630.7,7.1,480,7.1z M595.4,422.1c-1.9,0.3-3.9,0.4-5.9,0.4c-27,0-53.9,0-80.9,0c-46.1,0-92.2,0-138.2,0
		c-4.8,0-9.4-0.9-13.7-2.9c-10.4-5-16.7-13.2-18.8-24.5c-0.3-1.9-0.4-3.8-0.4-5.8c0-14.5,0-29,0-43.6c0-58.4,0-116.7,0-175.1
		c0-5.1,0.9-9.9,3.2-14.4c5-10.2,13.2-16.3,24.3-18.4c2-0.4,4-0.5,6-0.5c36.4,0,72.8,0,109.2,0c36.5,0,73,0,109.5,0
		c9.1,0,17,3.2,23.4,9.7c6.3,6.3,9.6,14.1,9.6,23c0,73.3,0,146.5,0,219.8C622.6,405.7,611,419.5,595.4,422.1z"/>
</g>
</svg>
