<?xml version="1.0" encoding="utf-8"?>
<!-- Generator: Adobe Illustrator 17.1.0, SVG Export Plug-In . SVG Version: 6.00 Build 0)  -->
<!DOCTYPE svg PUBLIC "-//W3C//DTD SVG 1.1//EN" "http://www.w3.org/Graphics/SVG/1.1/DTD/svg11.dtd">
<svg version="1.1" id="Layer_1" xmlns="http://www.w3.org/2000/svg" xmlns:xlink="http://www.w3.org/1999/xlink" x="0px" y="0px"
	 viewBox="0 0 1000 1000" enable-background="new 0 0 1000 1000" xml:space="preserve">
<path d="M610,563.9l0.5-0.6c48.1-73.2,38-169.6-25.7-233.3c-35.6-35.6-82.1-55.1-132.2-55.1s-97.2,19.6-132.7,54.6
	c-73.7,73.5-73.2,192.3-0.5,265.4c35.6,35.6,82.1,55.1,132.7,55.1c37.4,0,71.7-9.6,101.7-29.3l89.7,89.7c19.5,19.5,51.2,19.5,70.7,0
	l21.2-21.2L610,563.9z M376.1,538.3c-40.2-40.2-42.1-105.1-4-147.7c1.2-1.6,2.8-3.2,4.3-4.3c20.5-20.1,47.3-31.5,76-31.5
	s55.5,11.4,76,31.5c41.8,41.8,42.1,109.9-0.4,152c-20.4,20.4-47.3,31.5-76,31.5S396.5,558.3,376.1,538.3z"/>
</svg>
