<?xml version="1.0" encoding="utf-8"?>
<!-- Generator: Adobe Illustrator 18.1.1, SVG Export Plug-In . SVG Version: 6.00 Build 0)  -->
<svg version="1.1" id="Layer_1" xmlns="http://www.w3.org/2000/svg" xmlns:xlink="http://www.w3.org/1999/xlink" x="0px" y="0px"
	 viewBox="0 0 960 560" enable-background="new 0 0 960 560" xml:space="preserve">
<path fill="#FFFFFF" d="M480,7.1C329.3,7.1,207.1,129.3,207.1,280c0,150.7,122.2,272.9,272.9,272.9c150.7,0,272.9-122.2,272.9-272.9
	C752.9,129.3,630.7,7.1,480,7.1z M614.8,205c-5.1,5.3-10.6,10-16.4,14.3c0,1.3,0,2.5,0,3.7c0.2,5.8,0,11.6-0.5,17.4
	c-1.9,23.1-8.2,45-18.5,65.7c-9.6,19.3-22.2,36.3-38.1,50.9c-19.5,17.9-42.1,30.4-67.7,37.5c-8.3,2.3-16.6,3.9-25.1,4.9
	c-10.4,1.3-20.8,1.7-31.2,1.3c-30.5-1.4-58.8-10.2-84.7-26.4c-0.3-0.2-0.7-0.4-1-0.7c41,4.5,72.8-11.6,89.7-25.3
	c-16.8-0.7-31.1-7-42.8-19c-6.4-6.6-11-14.4-13.9-23.4c9.1,1.7,18.1,1.4,26.9-1c-16.1-3.8-28.9-12.4-38.1-26.1
	c-6.9-10.3-10.2-21.8-10.2-34.5c4.3,2.3,8.6,4.1,13.2,5.4c4.6,1.3,9.2,2,14.1,2.2c-17.1-12.5-26.4-29.1-26.8-50.3
	c-0.2-11.1,2.6-21.4,8.2-31.1c22.9,27.5,51.2,46.6,85.3,56.8c13.1,3.9,26.6,6.2,40.4,6.9c-0.2-0.9-0.3-1.6-0.4-2.3
	c-1.2-6.1-1.4-12.2-0.7-18.4c1.3-11.4,5.4-21.6,12.4-30.6c9.4-12,21.6-19.6,36.7-22.5c20.3-3.9,40.6,2.4,55.2,17.2
	c0.7,0.7,1.4,0.9,2.3,0.7c12.7-2.7,24.8-7.3,36-13.8c0.3-0.2,0.6-0.3,0.9-0.5c0.1,0,0.1,0,0.4,0c-4.8,14.2-13.5,25.2-26.1,33.2
	c1.4,0.4,10.4-1.3,17.3-3.2c5.7-1.6,11.3-3.6,16.8-5.8C624.5,194.2,619.9,199.8,614.8,205z"/>
</svg>
