<?xml version="1.0" encoding="utf-8"?>
<!-- Generator: Adobe Illustrator 18.0.0, SVG Export Plug-In . SVG Version: 6.00 Build 0)  -->
<!DOCTYPE svg PUBLIC "-//W3C//DTD SVG 1.1//EN" "http://www.w3.org/Graphics/SVG/1.1/DTD/svg11.dtd">
<svg version="1.1" id="Layer_1" xmlns="http://www.w3.org/2000/svg" xmlns:xlink="http://www.w3.org/1999/xlink" x="0px" y="0px"
	 viewBox="0 0 1030 293" enable-background="new 0 0 1030 293" xml:space="preserve">
<path fill="#555555" d="M48.9,35.6c9.1,9.1,18.4,18.2,27.5,27.2c-26,24.3-38.6,54.2-36.1,89.3c2.3,29.3,14.6,53.9,37,73.3
	c43.4,37.6,108.6,34.6,148.5-6.6c10.2-10.6,17.9-22.8,23.1-36.6c5.4-13.7,7.5-28,6.9-42.8c-0.6-14.6-4-28.6-10.4-41.9
	s-15.1-24.9-26-34.3c9.1-9.1,18.2-18.2,27.5-27.5c15.8,14.4,28,31.5,36.1,51.5c12.2,29.7,14.9,60.1,7.3,91.4
	c-15.6,64.4-70.6,107.8-131.9,112c-70.8,4.8-129.2-39.3-149.7-98C-11.2,133.2,8.3,71.8,48.9,35.6z"/>
<path fill="#555555" d="M90.8,77.3c1.8,1.8,3.3,3.5,5.1,5.4c13.5,13.5,27,27.2,40.8,40.8c0.9,0.9,1.3,1.5,1.3,2.9
	c0,34.6,0,69.2,0,103.8c0,0.4,0,0.9,0,1.5c-10.8-1.1-20.8-4.2-30.1-9.1c-18.3-9.5-31.9-23.9-40.3-43C50.4,140.5,64.2,99.2,90.8,77.3
	z"/>
<path fill="#555555" d="M158,177.5c0-17.1,0-34.1,0-51.3c0-1.3,0.4-2.3,1.3-3.1c14.9-14.9,29.7-29.7,44.6-44.6
	c1.1-1.1,1.5-1.1,2.7-0.2c14.6,13.5,24.3,29.9,27.7,49.7c4.8,27.5-1.8,52.1-19.9,73.4c-12,14.2-27,23.3-45,28
	c-3.1,0.9-6.2,1.3-9.3,1.8c-2,0.4-2.3,0.2-2.3-2C158,212.1,158,194.9,158,177.5z"/>
<path fill="#555555" d="M148,94.8c-27,0-49-22-49-48.8c0-27,21.8-49,48.8-49c27.2,0,49.2,21.8,49.2,49C197.1,73,175.1,94.8,148,94.8
	z"/>
<g>
	<path fill="#555555" d="M416.2,118.5c-0.9,2-1.5,3.5-2.3,5.1c-5.4,11.8-10.6,23.7-16,35.5c-0.6,1.3-1.3,1.8-2.9,1.8
		c-3.1-0.2-6.2,0-9.1,0c-0.6,0-1.8-0.6-2-1.1c-10-23.5-19.7-47-29.5-70.6c0-0.2,0-0.4-0.2-0.6c0.6,0,1.1-0.2,1.8-0.2
		c6.2,0,12.4,0,18.7,0c1.3,0,2,0.4,2.5,1.8c4.4,12,8.9,23.9,13.5,35.9c0.2,0.4,0.4,1.1,0.9,2.3c0.4-0.9,0.9-1.5,1.1-2.3
		c5.1-12,10.2-23.9,15.3-35.9c0.6-1.3,1.3-1.8,2.9-1.8c3.8,0,7.7,0,11.6,0c1.3,0,2,0.4,2.7,1.8c5.1,12,10,23.9,15.1,35.9
		c0.2,0.4,0.4,1.1,0.9,2.3c0.4-0.9,0.6-1.5,0.9-2.3c4.6-11.8,9.3-23.7,13.9-35.5c0.6-1.5,1.3-2,3.1-2c5.8,0.2,11.6,0,17.3,0
		c0.6,0,1.3,0,2.5,0c-0.2,0.9-0.4,1.5-0.6,2c-9.8,22.8-19.5,45.9-29.3,68.7c-0.6,1.3-1.3,1.8-2.7,1.8c-2.9,0-5.8-0.2-8.9,0
		c-1.3,0-2-0.4-2.7-1.8c-5.6-12.9-11.3-25.5-16.8-38.4C416.8,120.3,416.6,119.7,416.2,118.5z"/>
	<path fill="#555555" d="M695.6,115.2c1.8-2,3.3-4,4.8-5.8c5.4-6.4,10.8-13.1,16-19.5c0.9-1.3,2-1.5,3.5-1.5c4.8,0,10,0,14.9,0
		c0.6,0,1.3,0,2.3,0c0,23.9,0,47.7,0,71.6c-7.1,0-14.2,0-21.2,0c0-13.7,0-27.2,0-41.5c-0.9,0.9-1.3,1.3-1.5,1.8
		c-5.6,6.9-11.3,13.9-16.8,20.8c-1.5,2-2.3,2-3.8,0c-5.8-6.9-11.3-13.9-17.1-20.8c-0.4-0.4-0.9-0.9-1.5-2c0,14.2,0,27.7,0,41.5
		c-7.1,0-13.7,0-20.6,0c0-23.7,0-47.4,0-71.4c0.6,0,1.3,0,2,0c5.4,0,10.4,0,15.8,0c1.3,0,2,0.4,2.9,1.3c6.4,7.7,12.9,15.8,19.3,23.5
		C694.4,113.9,694.9,114.5,695.6,115.2z"/>
	<path fill="#555555" d="M824.8,159.8c0-23.7,0-47.4,0-71.4c0.6,0,1.1-0.2,1.5-0.2c11.3,0,22.4-0.2,33.7,0.2
		c8.3,0.2,16.2,1.8,23.1,6.6c11.8,7.9,15.8,19.7,15.1,33.5c-0.2,7.7-3.1,14.6-8.3,20.6c-6.4,7.3-14.4,10.6-23.9,10.8
		c-13.5,0.2-27,0-40.5,0C825.4,160,825.2,160,824.8,159.8z M846.3,145.3c7.1,0,13.9,0.6,20.6-2.3c4.8-2,7.7-5.6,8.9-10.6
		c0.9-4.4,1.1-9.1,0.4-13.7c-1.1-6.6-4.4-12-10.8-14.6c-6.2-2.5-12.4-1.5-18.9-1.8C846.3,117,846.3,131,846.3,145.3z"/>
	<path fill="#555555" d="M550.3,126.3c0,11.6,0,22.4,0,33.5c-7.1,0-14.2,0-21.2,0c0-23.7,0-47.4,0-71.4c7.1,0,13.9,0,21.2,0
		c0,10.6,0,21,0,32.2c0.9-1.1,1.3-1.5,1.8-2.3c7.7-9.5,15.3-19.1,23.1-28.6c0.9-1.1,1.8-1.5,3.1-1.5c6.4,0,12.9,0,19.3,0
		c0.6,0,1.1,0,2,0.2c-1.3,1.8-2.7,3.3-3.8,4.8c-7.1,9.1-14.2,17.9-21.6,27c-0.9,1.3-0.9,2,0,3.1c9.3,11.3,18.4,22.6,27.7,33.9
		c0.6,0.6,1.3,1.5,2.3,2.7c-1.1,0-1.5,0-2.3,0c-7.3,0-14.6,0-22,0c-1.5,0-2.5-0.4-3.3-1.5c-7.9-9.8-16-19.5-23.9-29.3
		C552.1,128.3,551.4,127.6,550.3,126.3z"/>
	<path fill="#555555" d="M1030.6,160c-5.4,0-10.4,0-15.6,0c-2.3,0-4.6,0.6-6.2-0.4c-1.3-0.9-1.8-3.5-2.5-5.6c-0.9-2.5-2-4.8-2.9-7.3
		c-0.4-1.1-0.9-1.5-2.3-1.5c-9.5,0-18.9,0-28.4,0c-1.3,0-1.8,0.4-2.3,1.5c-1.5,4-3.1,7.7-4.6,11.6c-0.2,0.6-1.1,1.3-1.5,1.3
		c-6.9,0-13.7,0-21,0c0.6-1.8,1.3-3.3,2-4.8c9.5-21.8,19.3-43.2,28.6-65c0.6-1.5,1.3-2,2.9-1.8c6.6,0,13.3,0,19.9,0
		c1.3,0,2,0.2,2.7,1.5c10,22.8,19.9,45.5,30.1,68.3C1030.2,158.6,1030.4,159.4,1030.6,160z M998,133c-3.5-8.9-7.1-17.5-10.6-26.6
		c-3.8,9.1-7.1,17.7-10.6,26.6C983.8,133,990.7,133,998,133z"/>
	<path fill="#555555" d="M809.8,145.9c0,4.8,0,9.3,0,14.2c-17.9,0-35.9,0-53.8,0c0-23.7,0-47.4,0-71.4c0.6,0,1.5,0,2.3,0
		c16.2,0,32.4,0,48.6,0c2,0,2.5,0.4,2.5,2.5c-0.2,3.3,0,6.4,0,9.8c0,1.5-0.4,2-2,2c-8.9,0-17.9,0-26.8,0c-0.9,0-1.5,0-2.7,0
		c0,4.4,0,8.9,0,13.3c10,0,19.9,0,29.9,0c0,4.8,0,9.5,0,14.2c-10,0-19.9,0-30.1,0c0,2,0,3.8,0,5.6c0,2.7,0.2,5.1,0,7.7
		c-0.2,2,0.6,2.5,2.5,2.5c9.1,0,18.4,0,27.5,0C807.9,145.9,808.8,145.9,809.8,145.9z"/>
	<path fill="#555555" d="M489.1,88.4c7.1,0,14.2,0,21.2,0c0,23.9,0,47.7,0,71.4c-7.1,0-13.9,0-21.2,0
		C489.1,136.1,489.1,112.3,489.1,88.4z"/>
	<path fill="#555555" d="M933.4,160c-7.1,0-13.9,0-21,0c0-23.7,0-47.4,0-71.4c6.9,0,13.9,0,21,0C933.4,112.3,933.4,136.1,933.4,160z
		"/>
	<path fill="#555555" d="M635.4,160c-7.1,0-13.9,0-21,0c0-0.9-0.2-1.5-0.2-2.3c0-22.4,0-44.6,0-66.9c0-2,0.6-2.5,2.5-2.5
		c6.2,0.2,12.4,0,18.9,0C635.4,112.3,635.4,136.1,635.4,160z"/>
	<path fill="#555555" d="M519.9,214.6c0,0.6,0,1.3,0,2.3c0,6.2,0,12.7,0,18.9c0,1.8-0.4,2.3-2.3,2.3c-3.3-0.2-6.6,0-10,0
		c0-14.2,0-28.2,0-42.4c3.5,0,7.1,0,10.4,0c0.6,0,1.1,0.6,1.8,1.3c6.2,6.6,12.4,13.3,18.9,20.2c0.6,0.6,1.1,1.3,1.8,2
		c0.2,0,0.4-0.2,0.6-0.2c0-7.7,0-15.3,0-23.1c4.2,0,8.3,0,12.4,0c0,13.9,0,28,0,42.4c-3.5,0-6.9,0-10.4,0c-0.6,0-1.3-0.9-1.8-1.3
		c-6.4-6.6-12.7-13.5-18.9-20.2c-0.4-0.6-0.9-1.3-1.3-2C520.3,214.3,520.1,214.3,519.9,214.6z"/>
	<path fill="#555555" d="M800.4,214.6c0,7.5,0,15.3,0,23.1c-4,0-7.9,0-12.2,0c0-13.9,0-28,0-42.4c3.5,0,6.9,0,10.4,0
		c0.6,0,1.1,0.6,1.8,1.3c6.4,6.9,12.7,13.5,19.1,20.4c0.4,0.6,0.9,1.3,1.3,2c0.2-0.2,0.4-0.2,0.9-0.4c0-7.5,0-15.3,0-23.1
		c4.2,0,8.3,0,12.2,0c0,13.9,0,28,0,42.4c-3.5,0-6.9,0-10.4,0c-0.6,0-1.3-0.6-1.8-1.1c-6.4-6.9-12.9-13.7-19.3-20.6
		c-0.4-0.6-0.9-1.3-1.1-2C801.1,214.1,800.7,214.3,800.4,214.6z"/>
	<path fill="#555555" d="M419.9,238.3c-6.6,0.2-12.7-1.3-17.5-6.2c-6.4-6.4-7.9-14.2-5.1-22.8c2.7-8.5,8.9-12.7,17.3-13.9
		c6.6-1.1,13.3-0.4,19.3,2.9c7.9,4.4,10.8,13.1,10.2,20.6C442.8,230.7,433.4,238.5,419.9,238.3z M419.9,227.7c7.1,0,11.3-4,11.3-11
		c0-6.9-4.2-11-11-11c-7.1,0-11.6,4.4-11.6,11C408.6,223.3,413.1,227.7,419.9,227.7z"/>
	<path fill="#555555" d="M755.2,238.3c-6.6,0.2-12.9-1.5-17.7-6.2c-6.4-6.4-7.7-14.2-5.1-22.6c2.7-8.3,8.9-12.7,17.1-13.9
		c6.6-1.1,13.1-0.6,19.1,2.7c6.6,3.5,10,9.3,10.4,16.8C780.3,228.8,770.3,238.7,755.2,238.3z M755.2,227.7c7.1,0,11.6-4.2,11.3-11
		c0-6.6-4.4-11-11.3-11c-7.1,0-11.3,4.2-11.3,11C744.1,223.4,748.3,227.7,755.2,227.7z"/>
	<path fill="#555555" d="M564.9,195.3c9.3,0.4,18.7-0.9,28,1.3c10.8,2.7,16.4,12.4,15.6,23.3c-0.6,7.5-4.2,12.9-11,16
		c-2.5,1.1-5.6,1.8-8.3,1.8c-7.7,0.2-15.3,0-23.1,0c-0.2,0-0.4,0-0.9-0.2C564.9,223.6,564.9,209.7,564.9,195.3z M577.4,216.5
		c0,3.5,0,7.3,0,10.8v0.2c-0.2,1.3,0.4,1.8,1.8,1.8c2,0,4,0,6,0c5.6-0.2,9.5-3.1,10.2-8.5c0.4-2.7,0.2-5.8-0.2-8.5
		c-0.9-4.8-4.4-7.9-9.5-8.5c-2-0.2-4.2-0.2-6.4-0.4c-1.3,0-2,0.4-2,2C577.4,209.2,577.4,212.8,577.4,216.5z"/>
	<path fill="#555555" d="M452.1,195.5c4.2,0,8.3,0,12.4,0c0,0.6,0,1.5,0,2.3c0,6,0,12,0,17.9c0,1.5,0.2,2.9,0.4,4.4
		c0.9,5.1,4.4,8.3,9.5,8.3s8.9-3.1,9.3-8.5c0.4-4.8,0.4-9.8,0.4-14.6c0-3.1,0-6,0-9.5c4,0,7.7,0,11.6,0c0.2,0,0.9,0.9,0.9,1.3
		c0,8.7,0.2,17.5-0.4,26.2c-0.6,7.5-6,12-13.1,14.2c-6,1.8-12,1.8-17.9,0c-7.9-2.5-12.9-7.9-13.1-16.4
		C451.6,212.4,452.1,203.9,452.1,195.5z"/>
	<path fill="#555555" d="M661.1,237.9c-4,0-7.7,0-11.3,0c-0.6,0-1.3-0.6-1.5-1.3c-0.9-2-1.8-4-2.5-6c-0.4-1.1-0.9-1.5-2.3-1.5
		c-5.4,0-10.4,0-15.8,0c-0.6,0-1.5,0.6-2,1.3c-0.9,2-1.8,4-2.7,6c-0.2,0.4-0.9,1.1-1.5,1.1c-3.8,0-7.5,0-11.6,0
		c0.2-0.9,0.4-1.3,0.6-2c5.8-12.9,11.3-25.7,17.1-38.6c0.6-1.5,1.3-2,2.9-2c3.5,0.2,6.9,0,10.4,0c0.6,0,1.5,0.6,2,1.1
		c6,13.3,12,26.8,17.7,40.1C661.1,236.9,661.1,237.1,661.1,237.9z M642.4,221.9c-2.3-5.4-4.2-10.4-6.2-15.6c-0.2,0-0.4,0-0.4,0
		c-2,5.1-4.2,10.2-6.2,15.6C633.9,221.9,637.9,221.9,642.4,221.9z"/>
	<path fill="#555555" d="M687.1,237.9c-4,0-7.5,0-11.3,0c-1.3,0-1.1-1.1-1.1-1.8c0-4.4,0-8.9,0-13.1c0-4.8,0-9.8,0-14.6
		c0-0.9,0-1.8-0.2-2.7c-5.1,0-10.2,0-15.3,0c0-3.3,0-6.6,0-10c0.6,0,1.3-0.2,2-0.2c13.1,0,26.4,0,39.5,0c2,0,2.5,0.6,2.3,2.5
		c0,1.8,0,3.5,0,5.4c0,1.8-0.4,2.5-2.3,2.5c-3.8-0.2-7.5,0-11.3,0c-1.8,0-2.3,0.6-2.3,2.3c0,9.1,0,18.4,0,27.5
		C687.1,235.8,687.1,236.7,687.1,237.9z"/>
	<path fill="#555555" d="M389.2,195.3c0,2.9,0,5.4,0,8.3c-0.9,0-2,0-2.9,0c-4.2,0-8.7,0-12.9,0c-1.3,0-2.3,0.4-2,2
		c0,1.5,0,3.3,0,4.8c0,1.3,0.4,1.8,1.8,1.8c4.4,0,9.1,0,13.5,0c0.6,0,1.3,0,2.5,0c0,2.7,0,4.8,0,7.3c0,0.4-1.1,0.9-1.8,0.9
		c-4.4,0-8.9,0-13.1,0c-0.9,0-1.5,0-2.5,0.2c0,5.8,0,11.3,0,17.1c-2.5,0-4.8,0-7.3,0c-5.6,0-5.6,0-5.6-5.6c0-11.6,0-23.1,0-34.3
		c0-2,0.4-2.7,2.5-2.5c8.5,0.2,16.8,0,25.3,0C387.7,195.3,388.4,195.3,389.2,195.3z"/>
	<path fill="#555555" d="M709.9,237.9c0-14.2,0-28.2,0-42.4c3.8,0,7.5,0,11.3,0c0.2,0,0.6,0.4,0.9,0.9c0.2,0.4,0,1.1,0,1.5
		c0,12.4,0,25.1,0,37.4c0,2-0.4,2.7-2.7,2.5C716.6,237.7,713.5,237.9,709.9,237.9z"/>
</g>
</svg>
