<?xml version="1.0" encoding="utf-8"?>
<!-- Generator: Adobe Illustrator 18.1.1, SVG Export Plug-In . SVG Version: 6.00 Build 0)  -->
<svg version="1.1" id="Layer_1" xmlns="http://www.w3.org/2000/svg" xmlns:xlink="http://www.w3.org/1999/xlink" x="0px" y="0px"
	 viewBox="0 0 960 560" enable-background="new 0 0 960 560" xml:space="preserve">
<path fill="#FFFFFF" d="M480,7.1C329.3,7.1,207.1,129.3,207.1,280c0,150.7,122.2,272.9,272.9,272.9c150.7,0,272.9-122.2,272.9-272.9
	C752.9,129.3,630.7,7.1,480,7.1z M674.6,174.7c-2.6,0.4-5.2,0.9-7.8,1.5c-9.8,2.6-16.9,9-21.3,17.8c-7.4,14.6-14.3,29.4-20.9,44.4
	c-25.8,57.9-51.5,116-77.2,174c-1.1,2.6-2,5.2-5.7,5.3c-3.9,0.1-5.4-2.5-6.8-5.4c-15.7-32.9-31.5-65.8-47.2-98.7
	c-0.7-1.4-1.4-2.8-2.4-4.7c-1.2,2-2.2,3.7-3.1,5.3c-17.9,32.5-35.8,65.1-53.7,97.6c-0.4,0.7-0.6,1.6-1.1,2c-2,1.4-4.2,3.6-6.3,3.6
	c-1.8,0-4.3-2.4-5.2-4.3c-7.9-17.5-15.4-35.1-23.1-52.7c-21.6-49.4-43.1-98.9-64.7-148.3c-2.3-5.3-5-10.4-7.8-15.4
	c-7.4-13.4-19.2-20-34-21.8c-0.9-0.1-1.9-0.1-2.8-0.4c-3.2-1.3-3.5-4-3.1-7c0.4-3.2,2.7-2.9,4.9-2.8c17.9,0.6,35.9,1.7,53.8,1.7
	c13.9,0.1,27.8-1.1,41.7-1.8c3.5-0.2,5.8,0.4,5.8,4.6c0,3.6-0.7,6.2-5.1,5.8c-0.7-0.1-1.5,0.3-2.3,0.4c-18.6,4-23.8,14.1-16.2,31.3
	c22.3,50.3,44.6,100.6,66.8,151c1.8,4.1,3.7,8.2,5.9,13.3c1.5-2.9,2.5-4.8,3.5-6.7c12.1-22.9,24.2-45.8,36.2-68.7
	c0.8-1.6,1.4-4,0.8-5.4c-15-31.4-30.2-62.6-45.3-93.9c-6-12.3-15-20.5-29.4-21.4c-3.9-0.2-4.3-3.4-4.2-6.6c0.1-3.3,2.2-3.6,4.8-3.5
	c15.8,0.7,31.5,1.7,47.3,1.8c12.2,0.1,24.3-1.1,36.5-1.8c3.5-0.2,5.8,0.5,5.8,4.6c0.1,3.6-0.7,5.6-5.1,5.9
	c-4.9,0.4-9.8,1.8-14.3,3.8c-5.3,2.3-7.2,6.8-5.6,12.4c1.2,4.5,2.9,8.9,4.9,13.1c8.3,17.3,16.9,34.4,25.7,52.2
	c1-1.8,1.9-3.2,2.6-4.6c7.4-13.7,15-27.4,22-41.3c2.9-5.7,5.1-12.1,6-18.5c1.1-7.3-2.9-12.4-10-15c-3.5-1.2-7.2-2-10.9-2.2
	c-3.6-0.2-4.6-1.9-4.5-5s1.1-5.5,4.9-5.3c7.8,0.4,15.6,1,23.4,1.1c12.8,0.1,25.6-0.2,38.3-0.5c4.4-0.1,8.7-0.4,13.1-0.6
	c2.5-0.1,4.8-0.2,4.8,3.4c0,3.1,0,6.1-4,6.7c-2.3,0.4-4.6,0.6-6.9,1.1c-8.9,1.8-16.6,5.8-21.9,13.3c-5.2,7.4-10.5,14.8-14.9,22.7
	c-10.8,19.3-21.2,38.9-31.6,58.4c-0.9,1.7-1.2,4.6-0.4,6.3c14.3,29.6,28.9,59.1,43.3,88.7c0.3,0.6,0.7,1,1.3,2.1
	c2.5-5.8,4.9-11.3,7.3-16.8c20-46.5,40.1-93.1,60-139.6c1.4-3.3,2.6-6.7,3.4-10.2c3.4-15.7-3.3-24.6-19.5-25.8
	c-2.4-0.2-4.7,0.1-5.3-3.2c-0.9-4.8,0.7-7.2,5.6-7c14,0.5,28.1,1.6,42.1,1.7c9.7,0.1,19.3-1.2,29-1.7c2.4-0.1,5.3-0.7,5.4,3.2
	C679.9,171.5,678.7,174.1,674.6,174.7z"/>
</svg>
